<?xml version="1.0" encoding="utf-8"?>
<!-- Generator: Adobe Illustrator 22.1.0, SVG Export Plug-In . SVG Version: 6.00 Build 0)  -->
<svg version="1.1" id="Layer_1" xmlns="http://www.w3.org/2000/svg" xmlns:xlink="http://www.w3.org/1999/xlink" x="0px" y="0px"
	 viewBox="0 0 23.7 27" style="enable-background:new 0 0 23.7 27;" xml:space="preserve">
<style type="text/css">
	.st0{fill:#F4F6F8;}
	.st1{fill:#5455A3;}
	.st2{fill:#343434;}
	.st3{fill:#FFFFFF;}
</style>
<g>
	<path class="st3" d="M11.9,0C5.3,0,0,5.3,0,11.9c0,5.5,3.8,10.3,9.2,11.6l1.1,5.7l1.5,8l1.5-8l1.1-5.7c6.4-1.5,10.4-7.8,8.9-14.2
		C22.2,3.8,17.4,0,11.9,0z M16.1,17.8l-4.3-2.3l-4.3,2.2l0.9-4.8L4.9,9.5l4.8-0.7l2.2-4.4L14,8.9l4.8,0.8L15.3,13L16.1,17.8z"/>
	<polygon class="st3" points="13.2,10 11.9,7.3 10.5,10 7.6,10.4 9.7,12.5 9.1,15.4 11.8,14.1 14.5,15.5 14,12.5 16.1,10.4 	"/>
</g>
</svg>
